<svg width="13" height="13" viewBox="0 0 13 13" fill="none" xmlns="http://www.w3.org/2000/svg">
<g clip-path="url(#clip0_1156_66)">
<path d="M9.56674 0H3.43326C1.508 0 0 1.508 0 3.43326V9.56674C0 11.492 1.508 13 3.43326 13H9.56674C11.492 13 13 11.492 13 9.56674V3.43326C13 1.508 11.4916 0 9.56674 0ZM12.1613 9.56674C12.1613 11.0219 11.0215 12.1613 9.56674 12.1613H3.43326C1.97852 12.1613 0.83871 11.0215 0.83871 9.56674V3.43326C0.83871 1.97852 1.97852 0.83871 3.43326 0.83871H9.56674C11.0219 0.83871 12.1613 1.97852 12.1613 3.43326V9.56674Z" fill="white"/>
<path d="M10.59 3.31854C10.4554 3.21999 10.275 3.21161 10.1312 3.29548C9.98779 3.37977 9.66992 3.42128 9.41495 3.45483C9.36211 3.46196 9.31011 3.46867 9.25979 3.4758C8.90292 3.17974 8.44708 3.01367 7.97698 3.01367C6.91811 3.01367 6.04921 3.83309 5.98757 4.86387C5.02724 4.70199 4.14786 4.20128 3.5247 3.44896C3.43202 3.33657 3.28818 3.28164 3.14308 3.30051C2.99883 3.32064 2.87554 3.41416 2.81725 3.54751C2.79041 3.60874 2.55641 4.18451 2.55641 5.60864C2.55641 6.84196 3.52973 7.74819 4.19734 8.22499C3.74066 8.43257 3.21437 8.5089 2.7145 8.45354C2.51908 8.43258 2.33625 8.54748 2.27167 8.73158C2.20708 8.91609 2.27837 9.12074 2.4436 9.22516C3.23199 9.72251 4.14324 9.98545 5.07924 9.98545C8.08518 9.98545 9.90434 7.62406 9.97185 5.2958C10.0582 5.17041 10.223 4.92635 10.5015 4.49819C10.613 4.32583 10.7066 3.95428 10.7523 3.74838C10.7888 3.58567 10.7246 3.41667 10.59 3.31854ZM9.21534 4.91461C9.16376 4.9859 9.13566 5.07228 9.13566 5.16035C9.13566 6.81554 7.87718 9.14674 5.07966 9.14674C4.82679 9.14674 4.57602 9.12367 4.33028 9.07838C4.65821 8.95425 4.96812 8.78106 5.25286 8.56174C5.36692 8.47409 5.42773 8.33319 5.41431 8.19019C5.40089 8.04719 5.31492 7.92054 5.18618 7.85554C5.16815 7.84632 3.39554 6.91409 3.39554 5.60906C3.39554 5.17167 3.41902 4.8278 3.45005 4.56612C4.27324 5.27483 5.32079 5.6988 6.42328 5.75332C6.43166 5.75374 6.44047 5.75416 6.44844 5.75374C6.6925 5.74661 6.87199 5.56754 6.87199 5.33438C6.87199 5.27651 6.86024 5.22158 6.83886 5.17125C6.82837 5.10835 6.82292 5.04503 6.82292 4.9817C6.82292 4.35896 7.3404 3.85238 7.97698 3.85238C8.29653 3.85238 8.60392 3.98322 8.82073 4.21093C8.91969 4.31409 9.06437 4.36064 9.20402 4.33338C9.29921 4.31535 9.40908 4.30109 9.5244 4.28599C9.5655 4.28054 9.60702 4.27509 9.64937 4.26922C9.33444 4.74896 9.22079 4.90706 9.21534 4.91461Z" fill="white"/>
</g>
<defs>
<clipPath id="clip0_1156_66">
<rect width="13" height="13" fill="white"/>
</clipPath>
</defs>
</svg>
